<mxfile host="app.diagrams.net" modified="2023-07-17T03:56:23.377Z" agent="Mozilla/5.0 (Windows NT 10.0; Win64; x64) AppleWebKit/537.36 (KHTML, like Gecko) Chrome/114.0.0.0 Safari/537.36" etag="5WS252bJ_u0f2d4Tm9Ku" version="21.6.2" type="github">
  <diagram name="Page-1" id="OMcX_c-y-y292oPPfdXL">
    <mxGraphModel dx="756" dy="424" grid="1" gridSize="10" guides="1" tooltips="1" connect="1" arrows="1" fold="1" page="1" pageScale="1" pageWidth="827" pageHeight="1169" math="0" shadow="0">
      <root>
        <mxCell id="0" />
        <mxCell id="1" parent="0" />
        <mxCell id="YyWyj65iSnYP4AkJpwN0-12" style="edgeStyle=orthogonalEdgeStyle;rounded=0;orthogonalLoop=1;jettySize=auto;html=1;entryX=0.5;entryY=1;entryDx=0;entryDy=0;fontStyle=1;labelBackgroundColor=none;fontColor=default;" edge="1" parent="1" source="YyWyj65iSnYP4AkJpwN0-2" target="YyWyj65iSnYP4AkJpwN0-3">
          <mxGeometry relative="1" as="geometry" />
        </mxCell>
        <mxCell id="YyWyj65iSnYP4AkJpwN0-2" value="&lt;br&gt;&lt;br&gt;Maintains Different versions of Code&amp;nbsp;" style="rounded=0;whiteSpace=wrap;html=1;direction=south;fontStyle=1;labelBackgroundColor=none;" vertex="1" parent="1">
          <mxGeometry x="40" y="120" width="120" height="160" as="geometry" />
        </mxCell>
        <mxCell id="YyWyj65iSnYP4AkJpwN0-13" style="edgeStyle=orthogonalEdgeStyle;rounded=0;orthogonalLoop=1;jettySize=auto;html=1;entryX=0.5;entryY=1;entryDx=0;entryDy=0;fontStyle=1;labelBackgroundColor=none;fontColor=default;" edge="1" parent="1" source="YyWyj65iSnYP4AkJpwN0-3" target="YyWyj65iSnYP4AkJpwN0-4">
          <mxGeometry relative="1" as="geometry" />
        </mxCell>
        <mxCell id="YyWyj65iSnYP4AkJpwN0-3" value="&lt;br&gt;&lt;br&gt;Compile Validate, Code Review, unit Testing, Integration Testing" style="rounded=0;whiteSpace=wrap;html=1;direction=south;fontStyle=1;labelBackgroundColor=none;" vertex="1" parent="1">
          <mxGeometry x="220" y="120" width="120" height="160" as="geometry" />
        </mxCell>
        <mxCell id="YyWyj65iSnYP4AkJpwN0-14" style="edgeStyle=orthogonalEdgeStyle;rounded=0;orthogonalLoop=1;jettySize=auto;html=1;entryX=0.5;entryY=1;entryDx=0;entryDy=0;fontStyle=1;labelBackgroundColor=none;fontColor=default;" edge="1" parent="1" source="YyWyj65iSnYP4AkJpwN0-4" target="YyWyj65iSnYP4AkJpwN0-5">
          <mxGeometry relative="1" as="geometry" />
        </mxCell>
        <mxCell id="YyWyj65iSnYP4AkJpwN0-4" value="&lt;br&gt;Deploying the Build app to Test Servers" style="rounded=0;whiteSpace=wrap;html=1;direction=south;fontStyle=1;labelBackgroundColor=none;" vertex="1" parent="1">
          <mxGeometry x="400" y="120" width="120" height="160" as="geometry" />
        </mxCell>
        <mxCell id="YyWyj65iSnYP4AkJpwN0-5" value="&lt;br&gt;&lt;br&gt;&lt;br&gt;Deploying the test APP on the Production Server for Release" style="rounded=0;whiteSpace=wrap;html=1;direction=south;fontStyle=1;labelBackgroundColor=none;" vertex="1" parent="1">
          <mxGeometry x="580" y="120" width="120" height="160" as="geometry" />
        </mxCell>
        <mxCell id="YyWyj65iSnYP4AkJpwN0-7" value="&lt;h1&gt;&lt;span&gt;DevOps Stages&lt;/span&gt;&lt;/h1&gt;" style="text;html=1;align=center;verticalAlign=middle;resizable=0;points=[];autosize=1;strokeColor=none;fillColor=none;strokeWidth=3;fontStyle=1;labelBackgroundColor=none;" vertex="1" parent="1">
          <mxGeometry x="265" y="50" width="200" height="70" as="geometry" />
        </mxCell>
        <mxCell id="YyWyj65iSnYP4AkJpwN0-8" value="Version Control" style="rounded=0;whiteSpace=wrap;html=1;fontStyle=1;labelBackgroundColor=none;" vertex="1" parent="1">
          <mxGeometry x="65" y="140" width="85" height="40" as="geometry" />
        </mxCell>
        <mxCell id="YyWyj65iSnYP4AkJpwN0-9" value="Continuous Integration" style="rounded=0;whiteSpace=wrap;html=1;fontStyle=1;labelBackgroundColor=none;" vertex="1" parent="1">
          <mxGeometry x="240" y="140" width="80" height="40" as="geometry" />
        </mxCell>
        <mxCell id="YyWyj65iSnYP4AkJpwN0-10" value="Continuous Delivery" style="rounded=0;whiteSpace=wrap;html=1;fontStyle=1;labelBackgroundColor=none;" vertex="1" parent="1">
          <mxGeometry x="420" y="140" width="80" height="40" as="geometry" />
        </mxCell>
        <mxCell id="YyWyj65iSnYP4AkJpwN0-11" value="Continuous Deployment" style="rounded=0;whiteSpace=wrap;html=1;fontStyle=1;labelBackgroundColor=none;" vertex="1" parent="1">
          <mxGeometry x="600" y="140" width="80" height="40" as="geometry" />
        </mxCell>
      </root>
    </mxGraphModel>
  </diagram>
</mxfile>
